<svg xmlns="http://www.w3.org/2000/svg" version="1.1" xmlns:xlink="http://www.w3.org/1999/xlink" x="0" y="0" viewBox="0 0 58 58" style="enable-background:new 0 0 512 512" xml:space="preserve" class=""><g><g fill="none" fill-rule="evenodd"><g fill-rule="nonzero"><path fill="#393f4a" d="M18 50.88V55a3 3 0 0 1-3 3h-2a3 3 0 0 1-3-3v-4.12z" opacity="1" data-original="#393f4a"></path><path fill="#bdc3c7" d="M24 33v3a2.006 2.006 0 0 1-2 2h-3.34a32.7 32.7 0 0 1-1.11-7H22a2.006 2.006 0 0 1 2 2z" opacity="1" data-original="#bdc3c7"></path><path fill="#802d40" d="M19 27.08a13.5 13.5 0 0 0-.45 3.92 32.7 32.7 0 0 0 1.11 7 41.528 41.528 0 0 1 1.33 7.55A5.988 5.988 0 0 1 18 50.88 7.507 7.507 0 0 1 14 52a7.6 7.6 0 0 1-4-1.12 6.026 6.026 0 0 1-3-5.08c0-.08.01-.17.01-.25.26-6.15 3.67-12.31 1.99-18.46z" opacity="1" data-original="#802d40" class=""></path><path fill="#ffffff" d="M14 49a3.961 3.961 0 0 1-3.316-1.386 4.836 4.836 0 0 1-.654-3.857 1 1 0 0 1 1.941.481 2.881 2.881 0 0 0 .293 2.15c.454.46 1.094.685 1.736.612a1 1 0 0 1 0 2z" opacity="1" data-original="#ffffff" class=""></path><path fill="#d75e72" d="m55.16 2.31-2.16 1L45 7 28.49 5.88a8.139 8.139 0 0 1-5.06-2.23A14 14 0 0 0 .09 15.58C.7 20.77 4.128 25.2 9 27.09a13.8 13.8 0 0 0 3.45.83 14.265 14.265 0 0 0 6.55-.84 13.961 13.961 0 0 0 3.52-1.97 9.038 9.038 0 0 1 4.95-1.94L45 22l8 3.69 2.16 1A2 2 0 0 0 58 24.87V4.13a2 2 0 0 0-2.84-1.82z" opacity="1" data-original="#d75e72" class=""></path><path fill="#393f4a" d="M53 3.31v22.38L45 22V7z" opacity="1" data-original="#393f4a"></path><path fill="#464f5d" d="M58 4.13v20.74a2 2 0 0 1-2.84 1.82l-2.16-1V3.31l2.16-1A2 2 0 0 1 58 4.13z" opacity="1" data-original="#464f5d" class=""></path><path fill="#802d40" d="M16 7h-4a1 1 0 0 1 0-2h4a1 1 0 0 1 0 2zM20 11H8a1 1 0 0 1 0-2h12a1 1 0 0 1 0 2zM16 23h-4a1 1 0 0 1 0-2h4a1 1 0 0 1 0 2zM20 19H8a1 1 0 0 1 0-2h12a1 1 0 0 1 0 2zM24 15H4a1 1 0 0 1 0-2h20a1 1 0 0 1 0 2z" opacity="1" data-original="#802d40" class=""></path><path fill="#f0c419" d="M46.21 49.16c-6.25 6.25-12.58 10.05-14.14 8.49l-7.78-7.78a1 1 0 0 1 0-1.41l1.42-1.42.7-.7.71-.71 1.42-1.42.7-.7 7.78-7.78.71-.71.71-.7 1.41-1.42.71-.71 2.12-2.12.71-.7.7-.71 1.42-1.42a1 1 0 0 1 1.41 0l7.78 7.78c1.56 1.56-2.24 7.9-8.49 14.14z" opacity="1" data-original="#f0c419"></path></g><path d="m26.414 46.335 6.364 6.364" fill="" opacity="1"></path><path fill="#e57e25" fill-rule="nonzero" d="M33.49 53.41a1.042 1.042 0 0 1-.71.29 1.024 1.024 0 0 1-.71-.29l-6.36-6.37.7-.7.71-.71 6.37 6.36c.39.393.39 1.027 0 1.42z" opacity="1" data-original="#e57e25"></path><path d="m29.243 43.507 6.364 6.364" fill="" opacity="1"></path><path fill="#e57e25" fill-rule="nonzero" d="M36.31 50.58a1 1 0 0 1-1.41 0l-6.36-6.37.7-.7.71-.71 6.36 6.36c.39.393.39 1.027 0 1.42z" opacity="1" data-original="#e57e25"></path><path d="m32.071 40.678 6.364 6.364" fill="" opacity="1"></path><path fill="#e57e25" fill-rule="nonzero" d="M39.14 47.75a1 1 0 0 1-1.41 0l-6.37-6.36 1.42-1.42 6.36 6.37a1 1 0 0 1 0 1.41z" opacity="1" data-original="#e57e25"></path><path d="m34.899 37.85 6.364 6.364" fill="" opacity="1"></path><path fill="#e57e25" fill-rule="nonzero" d="M41.97 44.92a1 1 0 0 1-1.41 0l-6.37-6.36 1.42-1.42 6.36 6.37a1 1 0 0 1 0 1.41z" opacity="1" data-original="#e57e25"></path><path d="m37.728 35.022 6.364 6.364" fill="" opacity="1"></path><path fill="#e57e25" fill-rule="nonzero" d="M44.8 42.09a.992.992 0 0 1-1.42 0l-6.36-6.36.71-.71.71-.7 6.36 6.36a1 1 0 0 1 0 1.41z" opacity="1" data-original="#e57e25"></path><path d="m40.556 32.193 6.364 6.364" fill="" opacity="1"></path><path fill="#e57e25" fill-rule="nonzero" d="M47.63 39.26a.99.99 0 0 1-1.42 0l-6.36-6.36.71-.71.7-.7 6.37 6.36a1 1 0 0 1 0 1.41z" opacity="1" data-original="#e57e25"></path><path d="m43.385 29.365 6.364 6.364" fill="" opacity="1"></path><path fill="#e57e25" fill-rule="nonzero" d="M50.46 36.44a1.042 1.042 0 0 1-.71.29 1.024 1.024 0 0 1-.71-.29l-6.36-6.37.71-.7.7-.71 6.37 6.36c.39.393.39 1.027 0 1.42z" opacity="1" data-original="#e57e25"></path></g></g></svg>