<svg xmlns="http://www.w3.org/2000/svg" version="1.1" xmlns:xlink="http://www.w3.org/1999/xlink" x="0" y="0" viewBox="0 0 512 512" style="enable-background:new 0 0 512 512" xml:space="preserve" class="hovered-paths"><g><path fill="#365e7d" d="M488.337 512a7.5 7.5 0 0 1-7.5-7.5v-32.325a7.5 7.5 0 0 1 15 0V504.5a7.5 7.5 0 0 1-7.5 7.5z" opacity="1" data-original="#365e7d"></path><path fill="#407093" d="M478.175 7.5H498.5a6 6 0 0 1 6 6v452.675a6 6 0 0 1-6 6h-20.325a6 6 0 0 1-6-6V13.5a6 6 0 0 1 6-6zM504.5 512h-32.325a7.5 7.5 0 0 1 0-15H504.5a7.5 7.5 0 0 1 0 15z" opacity="1" data-original="#407093"></path><path fill="#365e7d" d="M23.663 512a7.5 7.5 0 0 1-7.5-7.5v-32.325a7.5 7.5 0 0 1 15 0V504.5a7.5 7.5 0 0 1-7.5 7.5z" opacity="1" data-original="#365e7d"></path><path fill="#d3effb" d="M480.837 47.325H39.825a7.5 7.5 0 0 1 0-15h441.012a7.5 7.5 0 0 1 0 15z" opacity="1" data-original="#d3effb"></path><path fill="#dd636e" d="m433.489 169.121-30.308 30.308c-3.905 3.905-10.237 3.905-14.142 0l-7.069-7.069v124.35c0 5.523-4.477 10-10 10H228.43V192.36l-14.14 14.14-44.45-44.45L205.89 126h51.43l23.12-21.52h98.42a9.97 9.97 0 0 1 7.05 2.92l47.579 47.579c3.905 3.905 3.905 10.237 0 14.142z" opacity="1" data-original="#dd636e"></path><path fill="#da4a54" d="m169.839 162.055 44.447 44.447 14.142-14.142v134.352h79.388v-96.025l54.346-54.346c7.89-7.89 7.89-20.682 0-28.572l-43.293-43.293H231.56a10.001 10.001 0 0 0-7.071 2.929z" opacity="1" data-original="#da4a54"></path><path fill="#365e7d" d="M280.44 104.476v31.892a40.218 40.218 0 0 0 24.796 8.515c22.316 0 40.406-18.091 40.406-40.407z" opacity="1" data-original="#365e7d"></path><path fill="#b3e59f" d="M283.572 316.711V192.36l7.071 7.071c3.905 3.905 10.237 3.905 14.142 0l30.305-30.305c3.905-3.905 3.905-10.237 0-14.142l-47.579-47.579a10.001 10.001 0 0 0-7.071-2.929H133.159a10.001 10.001 0 0 0-7.071 2.929l-47.579 47.579c-3.905 3.905-3.905 10.237 0 14.142l30.305 30.305c3.905 3.905 10.237 3.905 14.142 0l7.071-7.071v124.352c0 5.523 4.477 10 10 10h133.545c5.523-.001 10-4.478 10-10.001z" opacity="1" data-original="#b3e59f" class="hovered-path"></path><path fill="#95d6a4" d="M225.925 242.121c-20.867 17.763-64.006 37.69-95.898 37.69v36.9c0 5.523 4.477 10 10 10h133.545c5.523 0 10-4.477 10-10V192.36l7.071 7.071c3.905 3.905 10.237 3.905 14.142 0l30.305-30.305c3.905-3.905 3.905-10.237 0-14.142l-40.19-40.19c-9.502 38.498-27.094 91.675-68.975 127.327z" opacity="1" data-original="#95d6a4"></path><path fill="#407093" d="M166.429 104.476c0 22.316 18.091 40.407 40.407 40.407s40.406-18.091 40.406-40.407zM13.5 7.5h20.325a6 6 0 0 1 6 6v452.675a6 6 0 0 1-6 6H13.5a6 6 0 0 1-6-6V13.5a6 6 0 0 1 6-6z" opacity="1" data-original="#407093"></path><path fill="#bc95e2" d="M239.837 359.037h-129.3c-8.926 0-16.163 7.236-16.163 16.163 0 8.926 7.236 16.163 16.163 16.163h129.301c8.926 0 16.163-7.236 16.163-16.163-.001-8.927-7.237-16.163-16.164-16.163z" opacity="1" data-original="#bc95e2"></path><path fill="#9dc6fb" d="M256 342.874c0-8.926-7.236-16.163-16.163-16.163h-129.3c-8.926 0-16.163 7.236-16.163 16.163 0 8.926 7.236 16.163 16.163 16.163h129.301c8.926 0 16.162-7.237 16.162-16.163z" opacity="1" data-original="#9dc6fb"></path><path fill="#b3e59f" d="M401.463 359.037h-129.3c-8.926 0-16.163 7.236-16.163 16.163 0 8.926 7.236 16.163 16.163 16.163h129.301c8.926 0 16.163-7.236 16.163-16.163-.001-8.927-7.237-16.163-16.164-16.163z" opacity="1" data-original="#b3e59f" class="hovered-path"></path><path fill="#ffe07d" d="M417.626 342.874c0-8.926-7.236-16.163-16.163-16.163h-129.3c-8.926 0-16.163 7.236-16.163 16.163 0 8.926 7.236 16.163 16.163 16.163h129.301c8.926 0 16.162-7.237 16.162-16.163z" opacity="1" data-original="#ffe07d"></path><path fill="#c38959" d="M431.87 504.5H80.13c-5.523 0-10-4.477-10-10v-93.138c0-5.523 4.477-10 10-10h351.74c5.523 0 10 4.477 10 10V494.5c0 5.523-4.477 10-10 10z" opacity="1" data-original="#c38959"></path><path fill="#b17a4a" d="M431.87 504.5h-14.244V391.362h14.244c5.523 0 10 4.477 10 10V494.5c0 5.523-4.477 10-10 10z" opacity="1" data-original="#b17a4a"></path><path fill="#e4f6ff" d="M102.455 462.175v-28.488c0-5.523 4.477-10 10-10h287.089c5.523 0 10 4.477 10 10v28.488c0 5.523-4.477 10-10 10H112.455c-5.523 0-10-4.477-10-10z" opacity="1" data-original="#e4f6ff"></path><path fill="#365e7d" d="M183.137 32.325v-8.663C183.137 10.615 193.752 0 206.8 0s23.663 10.615 23.663 23.663v32.325c0 10.428-6.779 19.301-16.163 22.445v26.043h-15V72.15a7.5 7.5 0 0 1 7.5-7.5c4.776 0 8.663-3.886 8.663-8.663V23.663c0-4.776-3.886-8.663-8.663-8.663s-8.663 3.886-8.663 8.663v8.663h-15zM281.574 32.325v-8.663C281.574 10.615 292.189 0 305.236 0s23.663 10.615 23.663 23.663v32.325c0 10.428-6.779 19.301-16.163 22.445v26.043h-15V72.15a7.5 7.5 0 0 1 7.5-7.5c4.776 0 8.663-3.886 8.663-8.663V23.663c0-4.776-3.886-8.663-8.663-8.663s-8.663 3.886-8.663 8.663v8.663h-14.999z" opacity="1" data-original="#365e7d"></path><path fill="#407093" d="M39.825 512H7.5a7.5 7.5 0 0 1 0-15h32.325a7.5 7.5 0 0 1 0 15z" opacity="1" data-original="#407093"></path></g></svg>