<svg xmlns="http://www.w3.org/2000/svg" version="1.1" xmlns:xlink="http://www.w3.org/1999/xlink" x="0" y="0" viewBox="0 0 128 128" style="enable-background:new 0 0 512 512" xml:space="preserve" class="hovered-paths"><g><linearGradient id="a"><stop offset="0" stop-color="#58595b"></stop><stop offset="1" stop-color="#414042"></stop></linearGradient><linearGradient xlink:href="#a" id="e" x1="28.504" x2="28.504" y1="13.667" y2="9.5" gradientUnits="userSpaceOnUse"></linearGradient><linearGradient id="f" x1="34" x2="34" y1="17.333" y2="14.357" gradientUnits="userSpaceOnUse"><stop offset="0" stop-color="#6c6f73"></stop><stop offset="1" stop-color="#56585b"></stop></linearGradient><linearGradient id="g" x1="34" x2="34" y1="29" y2="23.643" gradientUnits="userSpaceOnUse"><stop offset="0" stop-color="#e3e4e2"></stop><stop offset=".9" stop-color="#a8ada6"></stop><stop offset="1" stop-color="#7c8278"></stop></linearGradient><linearGradient xlink:href="#a" id="h" x1="1.861" x2="19.445" y1="31.357" y2="31.44" gradientUnits="userSpaceOnUse"></linearGradient><linearGradient id="i" x1="77.86" x2="90.464" y1="70.261" y2="66.227" gradientUnits="userSpaceOnUse"><stop offset="0" stop-color="#50a7d1"></stop><stop offset="1" stop-color="#198cc3"></stop></linearGradient><linearGradient id="b"><stop offset="0" stop-color="#967e7f"></stop><stop offset="1" stop-color="#373638"></stop></linearGradient><linearGradient xlink:href="#b" id="j" x1="7.23" x2="14.98" y1="29.937" y2="30.52" gradientUnits="userSpaceOnUse"></linearGradient><linearGradient xlink:href="#b" id="k" x1="7.252" x2="15.002" y1="29.637" y2="30.221" gradientUnits="userSpaceOnUse"></linearGradient><linearGradient xlink:href="#b" id="l" x1="7.275" x2="15.025" y1="29.338" y2="29.921" gradientUnits="userSpaceOnUse"></linearGradient><linearGradient xlink:href="#b" id="m" x1="7.297" x2="15.047" y1="29.039" y2="29.622" gradientUnits="userSpaceOnUse"></linearGradient><linearGradient xlink:href="#b" id="n" x1="41.617" x2="42.92" y1="31.491" y2="31.497" gradientUnits="userSpaceOnUse"></linearGradient><linearGradient xlink:href="#b" id="o" x1="21.617" x2="22.921" y1="31.489" y2="31.495" gradientUnits="userSpaceOnUse"></linearGradient><linearGradient id="p" x1="102.05" x2="67.254" y1="77.386" y2="81.279" gradientUnits="userSpaceOnUse"><stop offset="0" stop-color="#b9d9ef"></stop><stop offset="1" stop-color="#9ecdef"></stop></linearGradient><linearGradient id="c"><stop offset="0" stop-color="#e2dcca"></stop><stop offset=".667" stop-color="#f4eadd"></stop></linearGradient><linearGradient xlink:href="#c" id="q" x1="81.067" x2="82.067" y1="26.102" y2="35.977" gradientUnits="userSpaceOnUse"></linearGradient><linearGradient xlink:href="#c" id="r" x1="71.608" x2="62.441" y1="53.572" y2="49.739" gradientUnits="userSpaceOnUse"></linearGradient><linearGradient xlink:href="#c" id="s" x1="73.457" x2="64.29" y1="49.151" y2="45.317" gradientUnits="userSpaceOnUse"></linearGradient><linearGradient id="t" x1="109.146" x2="129.813" y1="137.862" y2="170.195" gradientUnits="userSpaceOnUse"><stop offset="0" stop-color="#a5af46"></stop><stop offset="1" stop-color="#9ba628"></stop></linearGradient><linearGradient id="u" x1="85.27" x2="86.017" y1="79.309" y2="96.738" gradientUnits="userSpaceOnUse"><stop offset=".044" stop-color="#b8c56b"></stop><stop offset=".658" stop-color="#a5af46"></stop><stop offset="1" stop-color="#9ba628"></stop></linearGradient><linearGradient id="d"><stop offset="0" stop-color="#a6b046"></stop><stop offset="1" stop-color="#9ca728"></stop></linearGradient><linearGradient xlink:href="#d" id="v" x1="31.193" x2="45.34" y1="79.633" y2="76.311" gradientUnits="userSpaceOnUse"></linearGradient><linearGradient xlink:href="#d" id="w" x1="84.838" x2="84.714" y1="91.58" y2="105.905" gradientUnits="userSpaceOnUse"></linearGradient><linearGradient id="x" x1="86.234" x2="83.484" y1="50.294" y2="163.294" gradientUnits="userSpaceOnUse"><stop offset="0" stop-color="#808f00"></stop><stop offset="1" stop-color="#6b7f00"></stop></linearGradient><path fill="url(#e)" d="M45 9c.653 0 1-.531 1-1 0-2.226.25-3.078-2-4C36.202.69 19.965 1.812 12 5c-.548.164-1 .448-1 1v2a1 1 0 0 0 1 1z" opacity="1" data-original="url(#e)"></path><path fill="url(#f)" d="M40 14H28a2 2 0 0 1-2-2V9h16v3a2 2 0 0 1-2 2z" opacity="1" data-original="url(#f)"></path><path fill="url(#g)" d="M29 14h10v9H29z" opacity="1" data-original="url(#g)"></path><path fill="url(#h)" d="M48 40H20V26.864A3.864 3.864 0 0 1 23.864 23h20.271A3.864 3.864 0 0 1 48 26.864z" opacity="1" data-original="url(#h)"></path><path fill="url(#i)" d="M48 40H20C11.633 44.842 6 53.638 6 64v55a7 7 0 0 0 7 7h42a7 7 0 0 0 7-7V64c0-10.362-5.633-19.158-14-24z" opacity="1" data-original="url(#i)" class="hovered-path"></path><path fill="url(#j)" d="M27 23h2v17h-2z" opacity="1" data-original="url(#j)"></path><path fill="url(#k)" d="M31 23h2v17h-2z" opacity="1" data-original="url(#k)"></path><path fill="url(#l)" d="M35 23h2v17h-2z" opacity="1" data-original="url(#l)"></path><path fill="url(#m)" d="M39 23h2v17h-2z" opacity="1" data-original="url(#m)"></path><path fill="url(#n)" d="M44.136 23H43v17h2V23.105a3.848 3.848 0 0 0-.864-.105z" opacity="1" data-original="url(#n)"></path><path fill="url(#o)" d="M23.864 23c-.298 0-.586.041-.864.105V40h2V23z" opacity="1" data-original="url(#o)"></path><path fill="url(#p)" d="M6 67h56v36H6z" opacity="1" data-original="url(#p)" class=""></path><path fill="url(#q)" d="M105 59c-2.127-.189-7.917-2.5-10-8-.708-1.87-3-8-8-9 0 13-27.964 15-30 23h56c0-2.077-2.688-4.938-8-6z" opacity="1" data-original="url(#q)"></path><path fill="url(#r)" d="M76.001 62a1 1 0 0 1-.396-1.919c.068-.029 6.793-2.945 9.595-6.681a1 1 0 0 1 1.599 1.2c-3.124 4.166-10.11 7.192-10.406 7.319a.987.987 0 0 1-.392.081z" opacity="1" data-original="url(#r)"></path><path fill="url(#s)" d="M97.001 62a.968.968 0 0 1-.243-.03c-4.396-1.099-7.521-7.261-7.652-7.523a1 1 0 1 1 1.789-.895c.027.056 2.846 5.602 6.348 6.478a1 1 0 0 1-.242 1.97z" opacity="1" data-original="url(#s)"></path><path fill="url(#t)" d="M116 77H54a5 5 0 0 0-5 5v35a9 9 0 0 0 9 9h54a9 9 0 0 0 9-9V82a5 5 0 0 0-5-5z" opacity="1" data-original="url(#t)"></path><path fill="url(#u)" d="M56 69h58v8H56z" opacity="1" data-original="url(#u)"></path><path fill="url(#v)" d="M114 69H56a2 2 0 1 1 0-4h58a2 2 0 1 1 0 4z" opacity="1" data-original="url(#v)"></path><path fill="url(#w)" d="M56 72h58v2H56z" opacity="1" data-original="url(#w)"></path><path fill="url(#x)" d="M49 88h72v26H49z" opacity="1" data-original="url(#x)"></path></g></svg>