<svg xmlns="http://www.w3.org/2000/svg" version="1.1" xmlns:xlink="http://www.w3.org/1999/xlink" x="0" y="0" viewBox="0 0 464.001 464.001" style="enable-background:new 0 0 512 512" xml:space="preserve" class=""><g><path fill="#ffd9ad" d="M377.27 78.976c20.426-15.449 50.191-7.284 59.68 16.77l26 65.87c3.04 7.71-.74 16.42-8.45 19.47l-44.5 17.55c-7.71 3.05-16.42-.74-19.47-8.45l-25.99-65.87c-6.568-16.652-.872-35.08 12.73-45.34z" opacity="1" data-original="#ffd9ad"></path><path fill="#ffebd2" d="m404.54 134.316 16.825 42.634c3.244 8.221-.791 17.515-9.012 20.758l-2.353.928c-7.71 3.05-16.42-.74-19.47-8.45l-25.99-65.87c-8.986-22.779 5.035-48.042 29.072-52.558 14.167-2.662 24.356 13.502 15.825 25.122-7.571 10.313-10.078 24.301-4.897 37.436z" opacity="1" data-original="#ffebd2" class=""></path><path fill="#f5b5b5" d="M409.187 117.078a7.992 7.992 0 0 1-6.561-3.413c-8.108-11.584-18.026-20.948-29.479-27.832-44.43-26.711-96.284-6.334-106.228-1.979a8.001 8.001 0 0 1-6.42-14.656c11.209-4.909 69.711-27.846 120.892 2.922 13.385 8.046 24.939 18.937 34.342 32.369 3.745 5.349-.178 12.589-6.546 12.589z" opacity="1" data-original="#b5d5f5" class=""></path><path fill="#ff8080" d="M346 191.106v-28c0-13.25-10.75-24-24-24h-82.67c33.45-19.36 60.45-51.99 58.55-82.19-3.55-56.58-85.42-48.6-124.88 4.46C133.54 8.316 51.67.336 48.12 56.916c-1.9 30.2 25.1 62.83 58.55 82.19H24c-13.25 0-24 10.75-24 24v28c0 11.75 8.46 21.54 19.62 23.59 0 2.711-10.067 84.19-13 198.61-.46 17.98 14.01 32.8 32 32.8h268.76c17.99 0 32.46-14.82 32-32.8-3.05-118.951-13-193.87-13-198.61 11.16-2.05 19.62-11.84 19.62-23.59z" opacity="1" data-original="#80aaff" class=""></path><path fill="#ff9c9c" d="M88.823 435.791c1.493 5.155-2.289 10.315-7.656 10.315H38.62c-17.99 0-32.46-14.82-32-32.8a2504.48 2504.48 0 0 1 13-198.6c0-.1 1.351.4 4.38.4h60.755a7.99 7.99 0 0 1 7.986 8.396 5192.605 5192.605 0 0 0-6.13 194.874c-.079 6.355.737 12.322 2.212 17.415z" opacity="1" data-original="#9cbcff" class=""></path><path fill="#ff9c9c" d="M323.265 139.139c12.805.666 12.044 19.967-.778 19.967H84c-13.25 0-24.024 10.75-24 24 .02 10.892.012 17.645-.004 22.018-.02 5.513-4.505 9.963-10.018 9.957-27.168-.031-26.964.26-30.358-.385C8.46 212.646 0 202.856 0 191.106v-28c0-13.255 10.745-24 24-24 0 0 298.846.011 299.265.033z" opacity="1" data-original="#9cbcff" class=""></path><path fill="#fa7171" d="M327.445 225.046c.321 3.203-2.166 6.055-5.385 6.06h-98.09a5.506 5.506 0 0 1-5.463-4.786c-.483-3.68-.986-7.42-1.508-11.214 114.825 0 106.29.177 109.38-.41.001.659-.257-2.834 1.066 10.35zM129 215.106c-.522 3.794-1.025 7.534-1.508 11.214a5.505 5.505 0 0 1-5.463 4.786H23.94c-3.219-.005-5.706-2.857-5.385-6.06.347-3.453.702-6.901 1.065-10.34v-.01c3.141.597-4.554.41 109.38.41z" opacity="1" data-original="#719efa" class=""></path><path fill="#facbcb" d="M217 215.106c24.88 180.19 1.37 228.71.03 231h-88.06c-1.34-2.29-24.85-50.81.03-231z" opacity="1" data-original="#cbe3fa" class=""></path><path fill="#ffeeee" d="M152.794 446.106H128.97c-1.34-2.29-24.85-50.81.03-231h36.46c-12.853 135.12-6.958 196.2-2.817 219.268 1.098 6.118-3.633 11.732-9.849 11.732z" opacity="1" data-original="#eef7ff" class=""></path><path fill="#f09e9e" d="M212.852 231.106h-79.705c-3.33 0-5.902-2.925-5.466-6.227.425-3.214.864-6.474 1.318-9.773h88c.454 3.3.893 6.559 1.318 9.773.437 3.302-2.134 6.227-5.465 6.227z" opacity="1" data-original="#9ec7f0" class=""></path><path fill="#fff0a6" d="M297.88 56.916c-3.55-56.58-85.42-48.6-124.88 4.46C133.54 8.316 51.67.336 48.12 56.916c-1.9 30.2 25.1 62.83 58.55 82.19h132.66c33.45-19.36 60.45-51.99 58.55-82.19z" opacity="1" data-original="#fff0a6" class=""></path><path fill="#fff8d6" d="M277.653 39.487c-38.552 7.671-80.44 42.632-85.114 95.973a3.993 3.993 0 0 1-3.977 3.646H152.87C142.652 45.965 239.424-.781 280.311 24.858c6.134 3.846 4.444 13.216-2.658 14.629z" opacity="1" data-original="#fff8d6" class=""></path><path fill="#ffbc73" d="M233.02 87.086c-17.18 8.44-29.22 27.84-32.34 52.02h-16.06c0-.31.02-.62.06-.94 3.56-30.03 18.99-54.49 41.28-65.44a8.004 8.004 0 0 1 10.71 3.65c1.95 3.97.31 8.76-3.65 10.71z" opacity="1" data-original="#ffe773" class=""></path><path fill="#fff8d6" d="M73.12 75.916c-.612 9.697 1.758 19.645 6.365 29.324 2.478 5.206-4.396 9.728-8.259 5.449C56.314 94.17 46.979 75.102 48.12 56.916c2.595-41.36 47.047-48.223 86.186-28.194 5.129 2.625 2.554 10.384-3.121 9.388-29.75-5.217-56.082 6.257-58.065 37.806z" opacity="1" data-original="#fff8d6" class=""></path><path fill="#ffbc73" d="M152.87 139.106h-4.461a3.991 3.991 0 0 1-3.923-3.254c-4.151-22.11-15.565-40.846-31.324-48.681-3.75-1.864-5.631-6.308-4.089-10.202 1.738-4.389 6.805-6.278 10.957-4.243 14.41 7.06 25.95 19.74 33.29 36.09-1.514 10.127-1.561 20.166-.45 30.29z" opacity="1" data-original="#ffe773" class=""></path></g></svg>  