<svg xmlns="http://www.w3.org/2000/svg" version="1.1" xmlns:xlink="http://www.w3.org/1999/xlink" x="0" y="0" viewBox="0 0 2048 2048" style="enable-background:new 0 0 512 512" xml:space="preserve" class=""><g><path fill="#ffe341" d="M1439.933 1268.937 1314.1 1396.365a57.144 57.144 0 0 1-53.645-5.223L941.3 1089.428v-.009a534.39 534.39 0 0 0 87.047-56.891l10.664-8.556a4204.623 4204.623 0 0 0 62.192 44.486c71.192 49.851 144.003 97.637 219.471 140.193 44.827 25.24 84.256 44.906 119.259 60.286z" opacity="1" data-original="#ffe341" class=""></path><path fill="#ff1b31" d="M1273.285 1310.658 941.3 1089.428v-.009c-115.365 60.294-250.029 77.003-378.561 44.608 0 0-.709 1.198-1.977 3.464a364.4 364.4 0 0 0-5.336 9.894c-26.053 49.979-42.272 104.447-48.046 160.428l52.044 206.06 689.094 90.423 78.412-288.417a57.14 57.14 0 0 1-53.645-5.221z" opacity="1" data-original="#ff1b31" class=""></path><path fill="#e81534" d="m556.1 1317.587-48.72-9.772a465.845 465.845 0 0 0-1.286 14.802l-11.977 171.057 187.321-16.902c3.001-74.606-48.326-143.736-125.338-159.185z" opacity="1" data-original="#e81534" class=""></path><path fill="#fbf2f2" d="M1020.972 1513.874c-99.452-19.352-232.025-37.084-331.949-37.084-2.555 0-5.083-.009-7.585-.018-73.88-.359-122.828-5.853-151.776-10.673-17.724-2.974-34.101 9.816-35.545 27.575l-.061.831-3.771 121.55c-.857 15.651 10.218 29.403 25.668 31.87 69.384 11.075 257.763 36.516 402.181 13.429 180.41-28.878 180.41 36.078 440.193 21.652 91.036-5.065 171.766-42.543 240.432-58.238l79.855-21.46c.385-.123.77-.236 1.155-.359 59.052-18.293 101.158-70.477 106.276-132.083l4.217-50.854z" opacity="1" data-original="#fbf2f2" class=""></path><path fill="#e81534" d="M1791.513 1396.007c.954 8.11.49 16.211-1.251 23.997 0 0 .009 0 0 .009-3.228 14.496-10.874 27.899-21.967 38.309-14.74 13.845-32.234 24.416-51.315 31.115-252.806 88.747-476.337 81.812-598.586 46.877-24.819-7.086-58.597-14.89-97.422-22.44 0 0 47.154-126.318 152.983-110.632 105.829 15.677 152.974-87.361 152.974-87.361l113.003-46.944c152.091 66.864 220.425 53.059 282.635 65.272 50.513 9.92 66.051 37.101 68.946 61.798z" opacity="1" data-original="#e81534" class=""></path><g fill="#f4be25"><path d="m1135.716 1092.377-25.195 37.189c-4.059 5.993-10.673 9.221-17.401 9.221a20.903 20.903 0 0 1-11.758-3.613c-9.606-6.509-12.108-19.561-5.608-29.158l25.292-37.329a5.63 5.63 0 0 1 .157-.228c5.8 4.068 11.548 8.066 17.226 12.003a3249.744 3249.744 0 0 0 17.287 11.915zM1193.307 1130.887c-.14.21-.28.42-.429.621l-24.968 36.875c-4.059 5.993-10.673 9.221-17.401 9.221a20.879 20.879 0 0 1-11.758-3.613c-9.597-6.5-12.108-19.553-5.608-29.158l25.152-37.137a2538.173 2538.173 0 0 0 17.462 11.653 3201.764 3201.764 0 0 0 17.55 11.538zM1257.747 1171.655c-.158.254-.315.499-.481.744l-27.181 40.12c-4.059 5.993-10.673 9.221-17.4 9.221a20.92 20.92 0 0 1-11.758-3.613c-9.597-6.509-12.108-19.561-5.608-29.158l26.779-39.534c6.01 3.814 11.933 7.541 17.786 11.189a2415.306 2415.306 0 0 0 17.863 11.031zM1320.675 1208.651c-.271.464-.551.919-.857 1.374l-27.557 40.68c-4.059 5.993-10.673 9.221-17.401 9.221a20.922 20.922 0 0 1-11.758-3.613c-9.597-6.5-12.108-19.561-5.608-29.158l26.779-39.525a1872.857 1872.857 0 0 0 18.162 10.62 1836.974 1836.974 0 0 0 18.24 10.401z" fill="#f4be25" opacity="1" data-original="#f4be25" class=""></path></g><path fill="#e7e2f0" d="M1679.77 1564.255c-.385.122-.77.236-1.155.359l-79.855 21.46c-68.666 15.695-149.396 53.173-240.432 58.238-259.784 14.426-259.784-50.531-440.193-21.652-144.418 23.087-332.798-2.353-402.181-13.429-12.292-1.963-21.808-11.072-24.755-22.595l-.913 29.421c-.857 15.651 10.218 29.403 25.668 31.87 69.384 11.075 257.763 36.516 402.181 13.429 180.41-28.878 180.41 36.078 440.193 21.652 91.036-5.065 171.766-42.543 240.432-58.238l79.855-21.46c.385-.123.77-.236 1.155-.359 59.052-18.293 101.158-70.477 106.276-132.083l4.217-50.854a73.595 73.595 0 0 1-4.32 13.276c-5.533 61.117-47.479 112.783-106.173 130.965z" opacity="1" data-original="#e7e2f0" class=""></path><path fill="#82d0ff" d="m1164.623 637.914 138.656-4.014 153.508 153.508-136.451 136.451-153.508-153.508z" opacity="1" data-original="#82d0ff"></path><path fill="#6c7d8f" d="M1265.629 751.546a24.168 24.168 0 0 1-16.069-6.091l-99.506-88.032-33.588-20.994a158.979 158.979 0 0 0-84.352-24.186H772.042c-13.401 0-24.265-10.864-24.265-24.265s10.864-24.265 24.265-24.265h260.072a207.455 207.455 0 0 1 110.074 31.563l35.296 22.061a24.207 24.207 0 0 1 3.217 2.403l101.014 89.367c10.037 8.88 10.975 24.215 2.096 34.252-4.794 5.42-11.473 8.186-18.182 8.187z" opacity="1" data-original="#6c7d8f"></path><path fill="#ffe341" d="m672.191 1312.566-127.428-125.832a57.144 57.144 0 0 1 5.223-53.645l301.713-319.155h.009a534.39 534.39 0 0 0 56.891 87.047l8.556 10.664a4204.623 4204.623 0 0 0-44.486 62.192c-49.851 71.192-97.637 144.003-140.193 219.471-25.239 44.827-44.905 84.256-60.285 119.258z" opacity="1" data-original="#ffe341" class=""></path><path fill="#ff1b31" d="m630.47 1145.918 221.229-331.984h.009c-60.294-115.365-77.003-250.029-44.608-378.561 0 0-1.198-.709-3.464-1.977a364.4 364.4 0 0 0-9.894-5.336c-49.98-26.053-104.447-42.272-160.428-48.046l-206.06 52.044-90.423 689.094 288.417 78.412a57.142 57.142 0 0 1 5.222-53.646z" opacity="1" data-original="#ff1b31" class=""></path><path fill="#e81534" d="m623.541 428.733 9.772-48.72a465.845 465.845 0 0 0-14.802-1.286L447.454 366.75l16.902 187.321c74.606 3.001 143.735-48.326 159.185-125.338z" opacity="1" data-original="#e81534" class=""></path><path fill="#fbf2f2" d="M427.253 893.606c19.351-99.452 37.084-232.025 37.084-331.949 0-2.555.009-5.083.018-7.585.359-73.88 5.853-122.827 10.673-151.776 2.974-17.724-9.816-34.101-27.575-35.545l-.831-.061-121.55-3.771c-15.651-.857-29.403 10.218-31.87 25.668-11.076 69.384-36.516 257.763-13.429 402.181 28.878 180.409-36.078 180.409-21.652 440.193 5.065 91.036 42.543 171.766 58.238 240.432l21.46 79.855c.122.385.236.77.359 1.155 18.293 59.052 70.477 101.158 132.083 106.276l50.854 4.217z" opacity="1" data-original="#fbf2f2" class=""></path><path fill="#e81534" d="M545.12 1664.147c-8.11.954-16.211.49-23.997-1.251 0 0 0 .009-.009 0-14.496-3.228-27.899-10.874-38.309-21.967-13.845-14.74-24.416-32.234-31.114-51.315-88.747-252.806-81.812-476.337-46.878-598.586 7.086-24.819 14.89-58.597 22.44-97.422 0 0 126.318 47.154 110.632 152.983-15.677 105.829 87.362 152.974 87.362 152.974l46.944 113.003c-66.864 152.091-53.059 220.425-65.272 282.635-9.921 50.513-37.102 66.05-61.799 68.946z" opacity="1" data-original="#e81534" class=""></path><g fill="#f4be25"><path d="m848.751 1008.35-37.189-25.195c-5.993-4.059-9.221-10.673-9.221-17.401a20.9 20.9 0 0 1 3.613-11.758c6.509-9.606 19.561-12.108 29.158-5.608l37.329 25.292c.079.052.157.105.227.157-4.068 5.8-8.066 11.548-12.003 17.226a3309.321 3309.321 0 0 0-11.914 17.287zM810.241 1065.94c-.21-.14-.42-.28-.621-.429l-36.875-24.968c-5.993-4.059-9.221-10.673-9.221-17.401a20.88 20.88 0 0 1 3.613-11.758c6.5-9.597 19.553-12.108 29.158-5.608l37.137 25.152a2538.173 2538.173 0 0 0-11.653 17.462 3162.338 3162.338 0 0 0-11.538 17.55zM769.473 1130.381a22.548 22.548 0 0 1-.744-.481l-40.12-27.181c-5.993-4.059-9.221-10.673-9.221-17.4a20.92 20.92 0 0 1 3.613-11.758c6.509-9.597 19.561-12.108 29.158-5.608l39.534 26.779a2586.082 2586.082 0 0 0-11.189 17.786 2394.622 2394.622 0 0 0-11.031 17.863zM732.476 1193.308a25.372 25.372 0 0 1-1.374-.857l-40.68-27.557c-5.993-4.059-9.221-10.673-9.221-17.401 0-4.051 1.172-8.153 3.613-11.758 6.5-9.597 19.561-12.108 29.158-5.608l39.525 26.779a1872.857 1872.857 0 0 0-10.62 18.162 1868.84 1868.84 0 0 0-10.401 18.24z" fill="#f4be25" opacity="1" data-original="#f4be25" class=""></path></g><path fill="#e7e2f0" d="M376.873 1552.404c-.122-.385-.236-.77-.359-1.155l-21.46-79.855c-15.695-68.666-53.173-149.396-58.238-240.432-14.426-259.784 50.531-259.784 21.652-440.193-23.087-144.419 2.353-332.798 13.429-402.181 1.963-12.292 11.072-21.808 22.595-24.755l-29.421-.913c-15.651-.857-29.403 10.218-31.87 25.668-11.076 69.384-36.516 257.763-13.429 402.181 28.878 180.409-36.078 180.409-21.652 440.193 5.065 91.036 42.543 171.766 58.238 240.432l21.46 79.855c.122.385.236.77.359 1.155 18.293 59.052 70.477 101.158 132.083 106.276l50.854 4.217a73.595 73.595 0 0 1-13.276-4.32c-61.118-5.533-112.783-47.48-130.965-106.173z" opacity="1" data-original="#e7e2f0" class=""></path></g></svg>